<svg xmlns="http://www.w3.org/2000/svg" width="2430" height="1220" style="font-family: 'Segoe UI';"><g width="2200" height="1120" transform="translate(80,20)"><g class="legends" transform="translate(0,1110)"><g class="legend" transform="translate(0,0)" style="font-size: 12pt;"><circle r="5" width="12" height="12" style="fill: rgb(31, 119, 180); opacity: 1;"/><text x="10" dy=".35em" text-anchor="start" class="legendtext" style="font-size: 12px; font-family: 'Segoe UI';">14 to 17 years old</text></g><g class="legend" transform="translate(131,0)" style="font-size: 12pt;"><circle r="5" width="12" height="12" style="fill: rgb(174, 199, 232); opacity: 1;"/><text x="10" dy=".35em" text-anchor="start" class="legendtext" style="font-size: 12px; font-family: 'Segoe UI';">14 to 15 years old</text></g><g class="legend" transform="translate(262,0)" style="font-size: 12pt;"><circle r="5" width="12" height="12" style="fill: rgb(255, 127, 14); opacity: 1;"/><text x="10" dy=".35em" text-anchor="start" class="legendtext" style="font-size: 12px; font-family: 'Segoe UI';">16 to 17 years old</text></g><g class="legend" transform="translate(393,0)" style="font-size: 12pt;"><circle r="5" width="12" height="12" style="fill: rgb(255, 187, 120); opacity: 1;"/><text x="10" dy=".35em" text-anchor="start" class="legendtext" style="font-size: 12px; font-family: 'Segoe UI';">18 to 19 years old</text></g><g class="legend" transform="translate(524,0)" style="font-size: 12pt;"><circle r="5" width="12" height="12" style="fill: rgb(44, 160, 44); opacity: 1;"/><text x="10" dy=".35em" text-anchor="start" class="legendtext" style="font-size: 12px; font-family: 'Segoe UI';">20 to 24 years old</text></g><g class="legend" transform="translate(655,0)" style="font-size: 12pt;"><circle r="5" width="12" height="12" style="fill: rgb(152, 223, 138); opacity: 1;"/><text x="10" dy=".35em" text-anchor="start" class="legendtext" style="font-size: 12px; font-family: 'Segoe UI';">25 to 29 years old</text></g><g class="legend" transform="translate(786,0)" style="font-size: 12pt;"><circle r="5" width="12" height="12" style="fill: rgb(214, 39, 40); opacity: 1;"/><text x="10" dy=".35em" text-anchor="start" class="legendtext" style="font-size: 12px; font-family: 'Segoe UI';">30 to 34 years old</text></g><g class="legend" transform="translate(917,0)" style="font-size: 12pt;"><circle r="5" width="12" height="12" style="fill: rgb(255, 152, 150); opacity: 1;"/><text x="10" dy=".35em" text-anchor="start" class="legendtext" style="font-size: 12px; font-family: 'Segoe UI';">35 to 44 years old</text></g><g class="legend" transform="translate(1048,0)" style="font-size: 12pt;"><circle r="5" width="12" height="12" style="fill: rgb(148, 103, 189); opacity: 1;"/><text x="10" dy=".35em" text-anchor="start" class="legendtext" style="font-size: 12px; font-family: 'Segoe UI';">45 to 54 years old</text></g><g class="legend" transform="translate(1179,0)" style="font-size: 12pt;"><circle r="5" width="12" height="12" style="fill: rgb(197, 176, 213); opacity: 1;"/><text x="10" dy=".35em" text-anchor="start" class="legendtext" style="font-size: 12px; font-family: 'Segoe UI';">55 to 64 years old</text></g><g class="legend" transform="translate(1310,0)" style="font-size: 12pt;"><circle r="5" width="12" height="12" style="fill: rgb(140, 86, 75); opacity: 1;"/><text x="10" dy=".35em" text-anchor="start" class="legendtext" style="font-size: 12px; font-family: 'Segoe UI';">65 or over</text></g></g><g class="x axis" id="xAxis" transform="translate(0,1072)"><g class="tick" transform="translate(228,0)" style="opacity: 1;"><line y2="6" x2="0" stroke="#444444" style="font-size: 12px; font-family: 'Segoe UI';"/><text dy=".71em" y="9" x="0" transform="rotate(0)" style="text-anchor: middle; fill: rgb(0, 0, 0); font-size: 12px; font-family: 'Segoe UI';">Agree strongly</text></g><g class="tick" transform="translate(639,0)" style="opacity: 1;"><line y2="6" x2="0" stroke="#444444" style="font-size: 12px; font-family: 'Segoe UI';"/><text dy=".71em" y="9" x="0" transform="rotate(0)" style="text-anchor: middle; fill: rgb(0, 0, 0); font-size: 12px; font-family: 'Segoe UI';">Agree slightly</text></g><g class="tick" transform="translate(1050,0)" style="opacity: 1;"><line y2="6" x2="0" stroke="#444444" style="font-size: 12px; font-family: 'Segoe UI';"/><text dy=".71em" y="9" x="0" transform="rotate(0)" style="text-anchor: middle; fill: rgb(0, 0, 0); font-size: 12px; font-family: 'Segoe UI';">Neither agree nor disagree</text></g><g class="tick" transform="translate(1461,0)" style="opacity: 1;"><line y2="6" x2="0" stroke="#444444" style="font-size: 12px; font-family: 'Segoe UI';"/><text dy=".71em" y="9" x="0" transform="rotate(0)" style="text-anchor: middle; fill: rgb(0, 0, 0); font-size: 12px; font-family: 'Segoe UI';">Disagree slightly</text></g><g class="tick" transform="translate(1872,0)" style="opacity: 1;"><line y2="6" x2="0" stroke="#444444" style="font-size: 12px; font-family: 'Segoe UI';"/><text dy=".71em" y="9" x="0" transform="rotate(0)" style="text-anchor: middle; fill: rgb(0, 0, 0); font-size: 12px; font-family: 'Segoe UI';">Disagree strongly</text></g><path class="domain" d="M0,6V0H2100V6" fill="none" stroke="#444444" style="font-size: 12px; font-family: 'Segoe UI';"/></g><g class="y axis" id="yAxis"><g class="tick" transform="translate(0,1070)" style="opacity: 1;"><line x2="-6" y2="0" stroke="#444444" style="font-size: 12px; font-family: 'Segoe UI';"/><text dy=".32em" x="-9" y="0" style="text-anchor: end; font-size: 12px; font-family: 'Segoe UI';">0%</text></g><g class="tick" transform="translate(0,964.3877551020408)" style="opacity: 1;"><line x2="-6" y2="0" stroke="#444444" style="font-size: 12px; font-family: 'Segoe UI';"/><text dy=".32em" x="-9" y="0" style="text-anchor: end; font-size: 12px; font-family: 'Segoe UI';">5%</text></g><g class="tick" transform="translate(0,858.7755102040816)" style="opacity: 1;"><line x2="-6" y2="0" stroke="#444444" style="font-size: 12px; font-family: 'Segoe UI';"/><text dy=".32em" x="-9" y="0" style="text-anchor: end; font-size: 12px; font-family: 'Segoe UI';">10%</text></g><g class="tick" transform="translate(0,753.1632653061224)" style="opacity: 1;"><line x2="-6" y2="0" stroke="#444444" style="font-size: 12px; font-family: 'Segoe UI';"/><text dy=".32em" x="-9" y="0" style="text-anchor: end; font-size: 12px; font-family: 'Segoe UI';">15%</text></g><g class="tick" transform="translate(0,647.5510204081633)" style="opacity: 1;"><line x2="-6" y2="0" stroke="#444444" style="font-size: 12px; font-family: 'Segoe UI';"/><text dy=".32em" x="-9" y="0" style="text-anchor: end; font-size: 12px; font-family: 'Segoe UI';">20%</text></g><g class="tick" transform="translate(0,541.9387755102041)" style="opacity: 1;"><line x2="-6" y2="0" stroke="#444444" style="font-size: 12px; font-family: 'Segoe UI';"/><text dy=".32em" x="-9" y="0" style="text-anchor: end; font-size: 12px; font-family: 'Segoe UI';">25%</text></g><g class="tick" transform="translate(0,436.3265306122449)" style="opacity: 1;"><line x2="-6" y2="0" stroke="#444444" style="font-size: 12px; font-family: 'Segoe UI';"/><text dy=".32em" x="-9" y="0" style="text-anchor: end; font-size: 12px; font-family: 'Segoe UI';">30%</text></g><g class="tick" transform="translate(0,330.7142857142857)" style="opacity: 1;"><line x2="-6" y2="0" stroke="#444444" style="font-size: 12px; font-family: 'Segoe UI';"/><text dy=".32em" x="-9" y="0" style="text-anchor: end; font-size: 12px; font-family: 'Segoe UI';">35%</text></g><g class="tick" transform="translate(0,225.10204081632654)" style="opacity: 1;"><line x2="-6" y2="0" stroke="#444444" style="font-size: 12px; font-family: 'Segoe UI';"/><text dy=".32em" x="-9" y="0" style="text-anchor: end; font-size: 12px; font-family: 'Segoe UI';">40%</text></g><g class="tick" transform="translate(0,119.48979591836732)" style="opacity: 1;"><line x2="-6" y2="0" stroke="#444444" style="font-size: 12px; font-family: 'Segoe UI';"/><text dy=".32em" x="-9" y="0" style="text-anchor: end; font-size: 12px; font-family: 'Segoe UI';">45%</text></g><path class="domain" d="M-6,35H0V1070H-6" fill="none" stroke="#444444" style="font-size: 12px; font-family: 'Segoe UI';"/><text transform="rotate(-90)" y="6" dy=".71em" style="fill: rgb(0, 0, 0); font-size: 12pt; text-anchor: end;"/></g><g class="g" transform="translate(43,1)"><g transform="translate(0,0)"><rect class=" bar tool Rectbar bars0" width="30" x="5.5" y="119" height="951" style="fill: rgb(31, 119, 180);"/><text class="hiddenval" x="19" y="104.48979591836732" dy=".75em" dx=".90em" text-anchor="middle" style="font-size: 12pt;">45%</text></g><g transform="translate(0,0)"><rect class=" bar tool Rectbar bars1" width="30" x="38.5" y="35" height="1035" style="fill: rgb(174, 199, 232);"/><text class="hiddenval" x="52" y="20" dy=".75em" dx=".90em" text-anchor="middle" style="font-size: 12pt;">49%</text></g><g transform="translate(0,0)"><rect class=" bar tool Rectbar bars2" width="30" x="71.5" y="141" height="929" style="fill: rgb(255, 127, 14);"/><text class="hiddenval" x="85" y="125.61224489795919" dy=".75em" dx=".90em" text-anchor="middle" style="font-size: 12pt;">44%</text></g><g transform="translate(0,0)"><rect class=" bar tool Rectbar bars3" width="30" x="104.5" y="119" height="951" style="fill: rgb(255, 187, 120);"/><text class="hiddenval" x="118" y="104.48979591836732" dy=".75em" dx=".90em" text-anchor="middle" style="font-size: 12pt;">45%</text></g><g transform="translate(0,0)"><rect class=" bar tool Rectbar bars4" width="30" x="137.5" y="288" height="782" style="fill: rgb(44, 160, 44);"/><text class="hiddenval" x="151" y="273.4693877551021" dy=".75em" dx=".90em" text-anchor="middle" style="font-size: 12pt;">37%</text></g><g transform="translate(0,0)"><rect class=" bar tool Rectbar bars5" width="30" x="170.5" y="394" height="676" style="fill: rgb(152, 223, 138);"/><text class="hiddenval" x="184" y="379.08163265306115" dy=".75em" dx=".90em" text-anchor="middle" style="font-size: 12pt;">32%</text></g><g transform="translate(0,0)"><rect class=" bar tool Rectbar bars6" width="30" x="203.5" y="479" height="591" style="fill: rgb(214, 39, 40);"/><text class="hiddenval" x="217" y="463.5714285714285" dy=".75em" dx=".90em" text-anchor="middle" style="font-size: 12pt;">28%</text></g><g transform="translate(0,0)"><rect class=" bar tool Rectbar bars7" width="30" x="236.5" y="415" height="655" style="fill: rgb(255, 152, 150);"/><text class="hiddenval" x="250" y="400.2040816326531" dy=".75em" dx=".90em" text-anchor="middle" style="font-size: 12pt;">31%</text></g><g transform="translate(0,0)"><rect class=" bar tool Rectbar bars8" width="30" x="269.5" y="521" height="549" style="fill: rgb(148, 103, 189);"/><text class="hiddenval" x="283" y="505.8163265306122" dy=".75em" dx=".90em" text-anchor="middle" style="font-size: 12pt;">26%</text></g><g transform="translate(0,0)"><rect class=" bar tool Rectbar bars9" width="30" x="302.5" y="436" height="634" style="fill: rgb(197, 176, 213);"/><text class="hiddenval" x="316" y="421.3265306122449" dy=".75em" dx=".90em" text-anchor="middle" style="font-size: 12pt;">30%</text></g><g transform="translate(0,0)"><rect class=" bar tool Rectbar bars10" width="30" x="335.5" y="584" height="486" style="fill: rgb(140, 86, 75);"/><text class="hiddenval" x="349" y="569.1836734693877" dy=".75em" dx=".90em" text-anchor="middle" style="font-size: 12pt;">23%</text></g></g><g class="g" transform="translate(454,1)"><g transform="translate(0,0)"><rect class=" bar tool Rectbar bars0" width="30" x="5.5" y="479" height="591" style="fill: rgb(31, 119, 180);"/><text class="hiddenval" x="19" y="463.5714285714285" dy=".75em" dx=".90em" text-anchor="middle" style="font-size: 12pt;">28%</text></g><g transform="translate(0,0)"><rect class=" bar tool Rectbar bars1" width="30" x="38.5" y="457" height="613" style="fill: rgb(174, 199, 232);"/><text class="hiddenval" x="52" y="442.44897959183675" dy=".75em" dx=".90em" text-anchor="middle" style="font-size: 12pt;">29%</text></g><g transform="translate(0,0)"><rect class=" bar tool Rectbar bars2" width="30" x="71.5" y="436" height="634" style="fill: rgb(255, 127, 14);"/><text class="hiddenval" x="85" y="421.3265306122449" dy=".75em" dx=".90em" text-anchor="middle" style="font-size: 12pt;">30%</text></g><g transform="translate(0,0)"><rect class=" bar tool Rectbar bars3" width="30" x="104.5" y="457" height="613" style="fill: rgb(255, 187, 120);"/><text class="hiddenval" x="118" y="442.44897959183675" dy=".75em" dx=".90em" text-anchor="middle" style="font-size: 12pt;">29%</text></g><g transform="translate(0,0)"><rect class=" bar tool Rectbar bars4" width="30" x="137.5" y="457" height="613" style="fill: rgb(44, 160, 44);"/><text class="hiddenval" x="151" y="442.44897959183675" dy=".75em" dx=".90em" text-anchor="middle" style="font-size: 12pt;">29%</text></g><g transform="translate(0,0)"><rect class=" bar tool Rectbar bars5" width="30" x="170.5" y="479" height="591" style="fill: rgb(152, 223, 138);"/><text class="hiddenval" x="184" y="463.5714285714285" dy=".75em" dx=".90em" text-anchor="middle" style="font-size: 12pt;">28%</text></g><g transform="translate(0,0)"><rect class=" bar tool Rectbar bars6" width="30" x="203.5" y="500" height="570" style="fill: rgb(214, 39, 40);"/><text class="hiddenval" x="217" y="484.69387755102036" dy=".75em" dx=".90em" text-anchor="middle" style="font-size: 12pt;">27%</text></g><g transform="translate(0,0)"><rect class=" bar tool Rectbar bars7" width="30" x="236.5" y="436" height="634" style="fill: rgb(255, 152, 150);"/><text class="hiddenval" x="250" y="421.3265306122449" dy=".75em" dx=".90em" text-anchor="middle" style="font-size: 12pt;">30%</text></g><g transform="translate(0,0)"><rect class=" bar tool Rectbar bars8" width="30" x="269.5" y="373" height="697" style="fill: rgb(148, 103, 189);"/><text class="hiddenval" x="283" y="357.9591836734693" dy=".75em" dx=".90em" text-anchor="middle" style="font-size: 12pt;">33%</text></g><g transform="translate(0,0)"><rect class=" bar tool Rectbar bars9" width="30" x="302.5" y="288" height="782" style="fill: rgb(197, 176, 213);"/><text class="hiddenval" x="316" y="273.4693877551021" dy=".75em" dx=".90em" text-anchor="middle" style="font-size: 12pt;">37%</text></g><g transform="translate(0,0)"><rect class=" bar tool Rectbar bars10" width="30" x="335.5" y="141" height="929" style="fill: rgb(140, 86, 75);"/><text class="hiddenval" x="349" y="125.61224489795919" dy=".75em" dx=".90em" text-anchor="middle" style="font-size: 12pt;">44%</text></g></g><g class="g" transform="translate(865,1)"><g transform="translate(0,0)"><rect class=" bar tool Rectbar bars0" width="30" x="5.5" y="753" height="317" style="fill: rgb(31, 119, 180);"/><text class="hiddenval" x="19" y="738.1632653061224" dy=".75em" dx=".90em" text-anchor="middle" style="font-size: 12pt;">15%</text></g><g transform="translate(0,0)"><rect class=" bar tool Rectbar bars1" width="30" x="38.5" y="753" height="317" style="fill: rgb(174, 199, 232);"/><text class="hiddenval" x="52" y="738.1632653061224" dy=".75em" dx=".90em" text-anchor="middle" style="font-size: 12pt;">15%</text></g><g transform="translate(0,0)"><rect class=" bar tool Rectbar bars2" width="30" x="71.5" y="753" height="317" style="fill: rgb(255, 127, 14);"/><text class="hiddenval" x="85" y="738.1632653061224" dy=".75em" dx=".90em" text-anchor="middle" style="font-size: 12pt;">15%</text></g><g transform="translate(0,0)"><rect class=" bar tool Rectbar bars3" width="30" x="104.5" y="753" height="317" style="fill: rgb(255, 187, 120);"/><text class="hiddenval" x="118" y="738.1632653061224" dy=".75em" dx=".90em" text-anchor="middle" style="font-size: 12pt;">15%</text></g><g transform="translate(0,0)"><rect class=" bar tool Rectbar bars4" width="30" x="137.5" y="690" height="380" style="fill: rgb(44, 160, 44);"/><text class="hiddenval" x="151" y="674.795918367347" dy=".75em" dx=".90em" text-anchor="middle" style="font-size: 12pt;">18%</text></g><g transform="translate(0,0)"><rect class=" bar tool Rectbar bars5" width="30" x="170.5" y="648" height="422" style="fill: rgb(152, 223, 138);"/><text class="hiddenval" x="184" y="632.5510204081633" dy=".75em" dx=".90em" text-anchor="middle" style="font-size: 12pt;">20%</text></g><g transform="translate(0,0)"><rect class=" bar tool Rectbar bars6" width="30" x="203.5" y="626" height="444" style="fill: rgb(214, 39, 40);"/><text class="hiddenval" x="217" y="611.4285714285714" dy=".75em" dx=".90em" text-anchor="middle" style="font-size: 12pt;">21%</text></g><g transform="translate(0,0)"><rect class=" bar tool Rectbar bars7" width="30" x="236.5" y="626" height="444" style="fill: rgb(255, 152, 150);"/><text class="hiddenval" x="250" y="611.4285714285714" dy=".75em" dx=".90em" text-anchor="middle" style="font-size: 12pt;">21%</text></g><g transform="translate(0,0)"><rect class=" bar tool Rectbar bars8" width="30" x="269.5" y="626" height="444" style="fill: rgb(148, 103, 189);"/><text class="hiddenval" x="283" y="611.4285714285714" dy=".75em" dx=".90em" text-anchor="middle" style="font-size: 12pt;">21%</text></g><g transform="translate(0,0)"><rect class=" bar tool Rectbar bars9" width="30" x="302.5" y="605" height="465" style="fill: rgb(197, 176, 213);"/><text class="hiddenval" x="316" y="590.3061224489795" dy=".75em" dx=".90em" text-anchor="middle" style="font-size: 12pt;">22%</text></g><g transform="translate(0,0)"><rect class=" bar tool Rectbar bars10" width="30" x="335.5" y="626" height="444" style="fill: rgb(140, 86, 75);"/><text class="hiddenval" x="349" y="611.4285714285714" dy=".75em" dx=".90em" text-anchor="middle" style="font-size: 12pt;">21%</text></g></g><g class="g" transform="translate(1276,1)"><g transform="translate(0,0)"><rect class=" bar tool Rectbar bars0" width="30" x="5.5" y="943" height="127" style="fill: rgb(31, 119, 180);"/><text class="hiddenval" x="19" y="928.265306122449" dy=".75em" dx=".90em" text-anchor="middle" style="font-size: 12pt;">6%</text></g><g transform="translate(0,0)"><rect class=" bar tool Rectbar bars1" width="30" x="38.5" y="964" height="106" style="fill: rgb(174, 199, 232);"/><text class="hiddenval" x="52" y="949.3877551020408" dy=".75em" dx=".90em" text-anchor="middle" style="font-size: 12pt;">5%</text></g><g transform="translate(0,0)"><rect class=" bar tool Rectbar bars2" width="30" x="71.5" y="943" height="127" style="fill: rgb(255, 127, 14);"/><text class="hiddenval" x="85" y="928.265306122449" dy=".75em" dx=".90em" text-anchor="middle" style="font-size: 12pt;">6%</text></g><g transform="translate(0,0)"><rect class=" bar tool Rectbar bars3" width="30" x="104.5" y="922" height="148" style="fill: rgb(255, 187, 120);"/><text class="hiddenval" x="118" y="907.1428571428571" dy=".75em" dx=".90em" text-anchor="middle" style="font-size: 12pt;">7%</text></g><g transform="translate(0,0)"><rect class=" bar tool Rectbar bars4" width="30" x="137.5" y="880" height="190" style="fill: rgb(44, 160, 44);"/><text class="hiddenval" x="151" y="864.8979591836735" dy=".75em" dx=".90em" text-anchor="middle" style="font-size: 12pt;">9%</text></g><g transform="translate(0,0)"><rect class=" bar tool Rectbar bars5" width="30" x="170.5" y="838" height="232" style="fill: rgb(152, 223, 138);"/><text class="hiddenval" x="184" y="822.6530612244898" dy=".75em" dx=".90em" text-anchor="middle" style="font-size: 12pt;">11%</text></g><g transform="translate(0,0)"><rect class=" bar tool Rectbar bars6" width="30" x="203.5" y="817" height="253" style="fill: rgb(214, 39, 40);"/><text class="hiddenval" x="217" y="801.5306122448978" dy=".75em" dx=".90em" text-anchor="middle" style="font-size: 12pt;">12%</text></g><g transform="translate(0,0)"><rect class=" bar tool Rectbar bars7" width="30" x="236.5" y="859" height="211" style="fill: rgb(255, 152, 150);"/><text class="hiddenval" x="250" y="843.7755102040816" dy=".75em" dx=".90em" text-anchor="middle" style="font-size: 12pt;">10%</text></g><g transform="translate(0,0)"><rect class=" bar tool Rectbar bars8" width="30" x="269.5" y="838" height="232" style="fill: rgb(148, 103, 189);"/><text class="hiddenval" x="283" y="822.6530612244898" dy=".75em" dx=".90em" text-anchor="middle" style="font-size: 12pt;">11%</text></g><g transform="translate(0,0)"><rect class=" bar tool Rectbar bars9" width="30" x="302.5" y="943" height="127" style="fill: rgb(197, 176, 213);"/><text class="hiddenval" x="316" y="928.265306122449" dy=".75em" dx=".90em" text-anchor="middle" style="font-size: 12pt;">6%</text></g><g transform="translate(0,0)"><rect class=" bar tool Rectbar bars10" width="30" x="335.5" y="943" height="127" style="fill: rgb(140, 86, 75);"/><text class="hiddenval" x="349" y="928.265306122449" dy=".75em" dx=".90em" text-anchor="middle" style="font-size: 12pt;">6%</text></g></g><g class="g" transform="translate(1687,1)"><g transform="translate(0,0)"><rect class=" bar tool Rectbar bars0" width="30" x="5.5" y="964" height="106" style="fill: rgb(31, 119, 180);"/><text class="hiddenval" x="19" y="949.3877551020408" dy=".75em" dx=".90em" text-anchor="middle" style="font-size: 12pt;">5%</text></g><g transform="translate(0,0)"><rect class=" bar tool Rectbar bars1" width="30" x="38.5" y="1028" height="42" style="fill: rgb(174, 199, 232);"/><text class="hiddenval" x="52" y="1012.7551020408162" dy=".75em" dx=".90em" text-anchor="middle" style="font-size: 12pt;">2%</text></g><g transform="translate(0,0)"><rect class=" bar tool Rectbar bars2" width="30" x="71.5" y="964" height="106" style="fill: rgb(255, 127, 14);"/><text class="hiddenval" x="85" y="949.3877551020408" dy=".75em" dx=".90em" text-anchor="middle" style="font-size: 12pt;">5%</text></g><g transform="translate(0,0)"><rect class=" bar tool Rectbar bars3" width="30" x="104.5" y="986" height="84" style="fill: rgb(255, 187, 120);"/><text class="hiddenval" x="118" y="970.5102040816327" dy=".75em" dx=".90em" text-anchor="middle" style="font-size: 12pt;">4%</text></g><g transform="translate(0,0)"><rect class=" bar tool Rectbar bars4" width="30" x="137.5" y="922" height="148" style="fill: rgb(44, 160, 44);"/><text class="hiddenval" x="151" y="907.1428571428571" dy=".75em" dx=".90em" text-anchor="middle" style="font-size: 12pt;">7%</text></g><g transform="translate(0,0)"><rect class=" bar tool Rectbar bars5" width="30" x="170.5" y="880" height="190" style="fill: rgb(152, 223, 138);"/><text class="hiddenval" x="184" y="864.8979591836735" dy=".75em" dx=".90em" text-anchor="middle" style="font-size: 12pt;">9%</text></g><g transform="translate(0,0)"><rect class=" bar tool Rectbar bars6" width="30" x="203.5" y="817" height="253" style="fill: rgb(214, 39, 40);"/><text class="hiddenval" x="217" y="801.5306122448978" dy=".75em" dx=".90em" text-anchor="middle" style="font-size: 12pt;">12%</text></g><g transform="translate(0,0)"><rect class=" bar tool Rectbar bars7" width="30" x="236.5" y="901" height="169" style="fill: rgb(255, 152, 150);"/><text class="hiddenval" x="250" y="886.0204081632653" dy=".75em" dx=".90em" text-anchor="middle" style="font-size: 12pt;">8%</text></g><g transform="translate(0,0)"><rect class=" bar tool Rectbar bars8" width="30" x="269.5" y="880" height="190" style="fill: rgb(148, 103, 189);"/><text class="hiddenval" x="283" y="864.8979591836735" dy=".75em" dx=".90em" text-anchor="middle" style="font-size: 12pt;">9%</text></g><g transform="translate(0,0)"><rect class=" bar tool Rectbar bars9" width="30" x="302.5" y="964" height="106" style="fill: rgb(197, 176, 213);"/><text class="hiddenval" x="316" y="949.3877551020408" dy=".75em" dx=".90em" text-anchor="middle" style="font-size: 12pt;">5%</text></g><g transform="translate(0,0)"><rect class=" bar tool Rectbar bars10" width="30" x="335.5" y="964" height="106" style="fill: rgb(140, 86, 75);"/><text class="hiddenval" x="349" y="949.3877551020408" dy=".75em" dx=".90em" text-anchor="middle" style="font-size: 12pt;">5%</text></g></g><text x="1100" y="4" class="ChartTitle" style="text-anchor: middle; font-size: 16pt; font-family: 'Segoe UI';">empty-Essential part of my day - YouTube</text></g></svg>